<svg xmlns="http://www.w3.org/2000/svg" xml:space="preserve" width="704.23627" height="700" viewBox="0 0 704.23626 699.99999"><path d="m334.577 273.058-1.007.157c63.728-35.355 107.673-101.908 107.673-179.958 0-77.373-41.926-142.79-104.767-178.399l-1.304-.785C423.56-72.834 490.903 1.243 490.903 93.257c0 91.793-68.269 166.416-156.326 179.801M42.421 93.257c0-92.847 68.778-169.62 158.178-182.177L159.382 93.257h65.774v264.324l-20.314-81.589c-91.446-10.68-162.421-88.41-162.421-182.735" style="fill:#0099d8;fill-opacity:1;fill-rule:nonzero;stroke:none;stroke-width:5.4126" transform="matrix(1.33333 0 0 -1.33333 49.699 476.775)"/><path d="M118.463-85.927C30.069-72.834-37.274 1.243-37.274 93.257c0 91.793 68.296 166.416 156.337 179.801l1.007.157C56.337 237.86 12.392 171.307 12.392 93.257c0-77.373 41.942-142.79 104.772-178.399zM410.434 93.257c0 93.774-70.142 171.157-160.835 182.562l41.325-182.562h-65.768l-.017-260.676 19.578 77.585c93.037 9.174 165.717 87.64 165.717 183.091" style="fill:#003876;fill-opacity:1;fill-rule:nonzero;stroke:none;stroke-width:5.4126" transform="matrix(1.33333 0 0 -1.33333 49.699 476.775)"/></svg>